<svg width="64" viewBox="0 0 64 64" fill="white" xmlns="http://www.w3.org/2000/svg">
    <path
        d="M62.2382 53.7582L40.48 32L62.2382 10.2418C64.5873 7.89275 64.5873 4.11089 62.2382 1.76181C59.8891 -0.587271 56.1073 -0.587271 53.7582 1.76181L32 23.52L10.2418 1.76181C7.89275 -0.587271 4.11089 -0.587271 1.76181 1.76181C-0.587271 4.11089 -0.587271 7.89275 1.76181 10.2418L23.52 32L1.76181 53.7582C-0.587271 56.1073 -0.587271 59.8891 1.76181 62.2382C4.11089 64.5873 7.89275 64.5873 10.2418 62.2382L32 40.48L53.7582 62.2382C56.1073 64.5873 59.8891 64.5873 62.2382 62.2382C64.5706 59.8891 64.5706 56.0906 62.2382 53.7582Z"
    />
</svg>
