<svg viewBox="0 0 27 26" fill="none" xmlns="http://www.w3.org/2000/svg">
    <path
        d="M13.3 1.85693C14.2529 1.85693 15.1694 2.22319 15.8599 2.87996C16.5504 3.53673 16.962 4.43376 17.0096 5.38551L17.0143 5.57122H21.6571C21.8938 5.57148 22.1215 5.66211 22.2936 5.82458C22.4657 5.98705 22.5692 6.2091 22.5831 6.44537C22.597 6.68164 22.5201 6.91429 22.3682 7.09578C22.2163 7.27727 22.0008 7.39391 21.7658 7.42186L21.6571 7.42836H20.8688L19.7731 20.9419C19.7024 21.8139 19.306 22.6273 18.6629 23.2204C18.0198 23.8135 17.1769 24.1427 16.3021 24.1426H10.2979C9.42307 24.1427 8.58024 23.8135 7.93709 23.2204C7.29395 22.6273 6.89761 21.8139 6.82693 20.9419L5.73028 7.42836H4.94285C4.71542 7.42833 4.4959 7.34483 4.32594 7.1937C4.15598 7.04256 4.04739 6.83431 4.02078 6.60843L4.01428 6.49979C4.01431 6.27235 4.09781 6.05283 4.24895 5.88287C4.40008 5.71291 4.60833 5.60433 4.83421 5.57772L4.94285 5.57122H9.58571C9.58571 4.58613 9.97704 3.64139 10.6736 2.94482C11.3702 2.24826 12.3149 1.85693 13.3 1.85693ZM11.2107 10.4462C11.0424 10.4462 10.8798 10.5072 10.753 10.6178C10.6262 10.7284 10.5437 10.8812 10.5208 11.0479L10.5143 11.1426V18.5712L10.5208 18.6659C10.5437 18.8326 10.6262 18.9854 10.7531 19.0959C10.8799 19.2065 11.0425 19.2674 11.2107 19.2674C11.379 19.2674 11.5415 19.2065 11.6684 19.0959C11.7952 18.9854 11.8777 18.8326 11.9006 18.6659L11.9071 18.5712V11.1426L11.9006 11.0479C11.8778 10.8812 11.7953 10.7284 11.6684 10.6178C11.5416 10.5072 11.379 10.4462 11.2107 10.4462ZM15.3893 10.4462C15.221 10.4462 15.0584 10.5072 14.9316 10.6178C14.8047 10.7284 14.7222 10.8812 14.6994 11.0479L14.6929 11.1426V18.5712L14.6994 18.6659C14.7223 18.8326 14.8048 18.9854 14.9316 19.0959C15.0585 19.2065 15.221 19.2674 15.3893 19.2674C15.5575 19.2674 15.7201 19.2065 15.8469 19.0959C15.9738 18.9854 16.0563 18.8326 16.0792 18.6659L16.0857 18.5712V11.1426L16.0792 11.0479C16.0563 10.8812 15.9738 10.7284 15.847 10.6178C15.7202 10.5072 15.5576 10.4462 15.3893 10.4462ZM13.3 3.71408C12.8315 3.71393 12.3802 3.89088 12.0366 4.20947C11.6931 4.52805 11.4826 4.96472 11.4475 5.43193L11.4429 5.57122H15.1571L15.1525 5.43193C15.1174 4.96472 14.9069 4.52805 14.5634 4.20947C14.2198 3.89088 13.7685 3.71393 13.3 3.71408Z"
        fill="#BBBBBB"
    />
</svg>
