<svg viewBox="0 0 25 24" fill="none" xmlns="http://www.w3.org/2000/svg" fill="none" stroke="#BBBBBB">
    <path
        d="M16.774 5.40783L18.892 7.52483L16.774 5.40783ZM18.136 3.54283L12.409 9.26983C12.1131 9.56533 11.9113 9.94181 11.829 10.3518L11.3 12.9998L13.948 12.4698C14.358 12.3878 14.734 12.1868 15.03 11.8908L20.757 6.16383C20.9291 5.99173 21.0656 5.78742 21.1587 5.56256C21.2519 5.33771 21.2998 5.09671 21.2998 4.85333C21.2998 4.60994 21.2519 4.36895 21.1587 4.14409C21.0656 3.91923 20.9291 3.71492 20.757 3.54283C20.5849 3.37073 20.3806 3.23421 20.1557 3.14108C19.9309 3.04794 19.6899 3 19.4465 3C19.2031 3 18.9621 3.04794 18.7372 3.14108C18.5124 3.23421 18.3081 3.37073 18.136 3.54283V3.54283Z"
        stroke="inherit"
        stroke-width="2"
        stroke-linecap="round"
        stroke-linejoin="round"
    />
    <path
        d="M19.3 15V18C19.3 18.5304 19.0893 19.0391 18.7142 19.4142C18.3391 19.7893 17.8304 20 17.3 20H6.29999C5.76955 20 5.26085 19.7893 4.88577 19.4142C4.5107 19.0391 4.29999 18.5304 4.29999 18V7C4.29999 6.46957 4.5107 5.96086 4.88577 5.58579C5.26085 5.21071 5.76955 5 6.29999 5H9.29999"
        stroke="inherit"
        stroke-width="2"
        stroke-linecap="round"
        stroke-linejoin="round"
    />
</svg>
