<svg width="24" height="24" viewBox="0 0 24 24" fill="currentColor" xmlns="http://www.w3.org/2000/svg">
  <path
    d="M12 24C18.6274 24 24 18.6274 24 12C24 5.37258 18.6274 0 12 0C5.37258 0 0 5.37258 0 12C0 18.6274 5.37258 24 12 24Z" />
  <path
    d="M12 13.575L19.1625 7.44375C19.05 7.36875 18.9 7.3125 18.75 7.3125H5.24999C5.09999 7.3125 4.94999 7.36875 4.83749 7.44375L12 13.575Z"
    fill="white" />
  <path
    d="M12.4875 14.1375C12.2062 14.3812 11.7938 14.3812 11.5125 14.1375L4.5 8.1562V15.9375C4.5 16.35 4.8375 16.6875 5.25 16.6875H18.75C19.1625 16.6875 19.5 16.35 19.5 15.9375V8.13745L12.4875 14.1375Z"
    fill="white" />
</svg>