<svg width="24" viewBox="0 0 24 24" fill="currentColor" xmlns="http://www.w3.org/2000/svg">
    <path d="M13.3215 7.46406C13.3215 7.08556 13.046 6.77856 12.706 6.77856H11.2945C10.9545 6.77856 10.6795 7.08556 10.6795 7.46406V8.19156H13.322V7.46406H13.3215Z" />
    <path
        d="M14.6075 9.99048H9.37151C8.97501 9.99048 8.65401 10.312 8.65401 10.708V15.9445C8.65401 16.341 8.97501 16.6615 9.37151 16.6615H14.6075C15.004 16.6615 15.325 16.341 15.325 15.9445V10.708C15.3245 10.312 15.004 9.99048 14.6075 9.99048ZM12.723 13.402C12.719 13.4085 12.7205 13.4125 12.716 13.419C12.548 13.6695 12.519 13.86 12.5155 13.941V14.792C12.5155 15.0795 12.282 15.3125 11.995 15.3125C11.707 15.3125 11.474 15.0795 11.474 14.792V13.961C11.474 13.594 11.21 13.337 11.21 13.337L11.2205 13.3355C11.0775 13.1615 10.984 12.9465 10.984 12.703C10.984 12.142 11.4385 11.6875 11.9995 11.6875C12.5605 11.6875 13.015 12.142 13.015 12.703C13.0155 12.9775 12.9005 13.22 12.723 13.402Z"
    />
    <path
        d="M12 0C5.3725 0 0 5.3725 0 12C0 18.6275 5.3725 24 12 24C18.6275 24 24 18.6275 24 12C24 5.3725 18.6275 0 12 0ZM17.056 17.217C17.056 17.8175 16.5695 18.304 15.9685 18.304H8.0315C7.431 18.304 6.944 17.8175 6.944 17.217V9.279C6.944 8.6785 7.431 8.1915 8.0315 8.1915H8.669H9.713V6.8825C9.713 6.227 10.1905 5.696 10.779 5.696H13.222C13.8105 5.696 14.288 6.2275 14.288 6.8825V8.1915H15.969C16.57 8.1915 17.0565 8.6785 17.0565 9.279V17.217H17.056Z"
    />
</svg>
