<svg width="24" height="24" viewBox="0 0 24 24" fill="#666666" xmlns="http://www.w3.org/2000/svg">
    <path
        d="M12 0C6.1748 0 1.32018 4.1511 0.22998 9.65624H3.56104C4.5874 5.95512 7.97206 3.23438 12 3.23438C14.4214 3.23438 16.6095 4.21828 18.1934 5.80664L14.3438 9.65624H24V0L20.4844 3.51562C18.3131 1.34362 15.314 0 12 0ZM0 14.3438V24L3.51562 20.4844C5.68692 22.6564 8.68604 24 12 24C17.8252 24 22.6798 19.8489 23.77 14.3438H20.439C19.4126 18.0449 16.0279 20.7656 12 20.7656C9.57862 20.7656 7.39052 19.7817 5.80664 18.1934L9.65624 14.3438H0V14.3438Z"
    />
</svg>
