<svg viewBox="0 0 27 26" fill="none" xmlns="http://www.w3.org/2000/svg">
    <path d="M13.3 16.25C15.0949 16.25 16.55 14.7949 16.55 13C16.55 11.2051 15.0949 9.75 13.3 9.75C11.5051 9.75 10.05 11.2051 10.05 13C10.05 14.7949 11.5051 16.25 13.3 16.25Z" fill="#BBBBBB" />
    <path
        d="M25.4388 12.7238C24.4831 10.2518 22.8241 8.11413 20.6668 6.57482C18.5094 5.03551 15.9483 4.16209 13.3 4.0625C10.6517 4.16209 8.09057 5.03551 5.93323 6.57482C3.7759 8.11413 2.11689 10.2518 1.16126 12.7238C1.09672 12.9023 1.09672 13.0977 1.16126 13.2762C2.11689 15.7482 3.7759 17.8859 5.93323 19.4252C8.09057 20.9645 10.6517 21.8379 13.3 21.9375C15.9483 21.8379 18.5094 20.9645 20.6668 19.4252C22.8241 17.8859 24.4831 15.7482 25.4388 13.2762C25.5033 13.0977 25.5033 12.9023 25.4388 12.7238ZM13.3 18.2812C12.2555 18.2812 11.2344 17.9715 10.3659 17.3912C9.49741 16.8109 8.82049 15.9861 8.42077 15.021C8.02104 14.056 7.91646 12.9941 8.12024 11.9697C8.32401 10.9452 8.827 10.0042 9.5656 9.26559C10.3042 8.527 11.2452 8.02401 12.2697 7.82023C13.2941 7.61645 14.356 7.72104 15.3211 8.12076C16.2861 8.52049 17.1109 9.1974 17.6912 10.0659C18.2715 10.9344 18.5813 11.9555 18.5813 13C18.5791 14.4 18.022 15.7421 17.032 16.732C16.0421 17.722 14.7 18.2791 13.3 18.2812Z"
        fill="#BBBBBB"
    />
</svg>
