<svg width="24" viewBox="0 0 24 24" fill="currentColor" xmlns="http://www.w3.org/2000/svg">
    <path
        d="M23.989 0.851162C23.992 0.837389 23.9943 0.823469 23.9959 0.809457C23.9959 0.799979 23.9991 0.7905 23.9997 0.781022C24.0004 0.771543 23.9997 0.755746 23.9997 0.743108C23.9997 0.73047 23.9997 0.720992 23.9997 0.71025C23.9997 0.699508 23.9997 0.688133 23.9997 0.677391C23.9997 0.666649 23.9997 0.651483 23.9997 0.639477C23.9997 0.627471 23.9997 0.619889 23.9959 0.61041C23.9921 0.600932 23.9921 0.582607 23.989 0.568705C23.9858 0.554803 23.9852 0.551012 23.9827 0.542166C23.9801 0.533319 23.9757 0.51373 23.9713 0.499829V0.491614L23.9637 0.471393C23.9595 0.458719 23.9547 0.446274 23.9492 0.434112C23.9448 0.422738 23.9397 0.412627 23.9353 0.401885L23.9201 0.371554C23.9138 0.36018 23.9075 0.349438 23.9005 0.338695C23.8936 0.327953 23.8898 0.321003 23.8841 0.312156C23.8784 0.303309 23.8696 0.291304 23.862 0.280561L23.8424 0.255917C23.8348 0.246439 23.8266 0.237592 23.819 0.228746L23.795 0.20347L23.7716 0.181354C23.7615 0.172507 23.752 0.163661 23.7419 0.156078L23.7192 0.137753C23.7085 0.129538 23.6971 0.121956 23.6857 0.114373C23.6781 0.108725 23.6701 0.103655 23.6617 0.0992074L23.6263 0.0789868L23.5979 0.0644535C23.5871 0.0593984 23.5758 0.053711 23.5644 0.0492877C23.5529 0.0442105 23.5411 0.0397804 23.529 0.036018L23.5069 0.0278035H23.4987L23.457 0.0170614C23.4483 0.01436 23.4394 0.012249 23.4305 0.0107426C23.4159 0.0107426 23.402 0.00568738 23.3881 0.00379169L23.3597 0H23.3205H23.2889H23.2542H23.2182L23.1878 0.00379169L23.148 0.0101105L23.1202 0.0170614L23.0785 0.0278035H23.071L0.498305 7.24657C0.367423 7.28841 0.251334 7.36702 0.163875 7.47301C0.0764152 7.579 0.021275 7.70791 0.00502706 7.84437C-0.0112209 7.98083 0.0121088 8.11909 0.0722349 8.24266C0.132361 8.36623 0.226748 8.4699 0.344144 8.54132L9.73852 14.2606L15.457 23.6562C15.5209 23.7613 15.6107 23.848 15.7178 23.9083C15.8249 23.9685 15.9457 24.0001 16.0686 24C16.0971 24.0002 16.1256 23.9985 16.1539 23.9949C16.2903 23.9788 16.4192 23.9237 16.5252 23.8363C16.6312 23.7489 16.7098 23.6329 16.7516 23.5021L23.9694 0.928253V0.92067C23.9738 0.906769 23.9776 0.892235 23.9808 0.877701C23.9839 0.863168 23.9871 0.860008 23.989 0.851162ZM15.8645 21.5704L11.2075 13.9175L19.4842 5.56257C19.6182 5.42757 19.6932 5.24485 19.6925 5.05459C19.6919 4.86434 19.6157 4.68213 19.4807 4.54806C19.3457 4.41399 19.163 4.33904 18.9728 4.33969C18.7826 4.34034 18.6004 4.41654 18.4663 4.55154L10.2212 12.8767L2.42975 8.13311L22.1814 1.81417L15.8645 21.5704Z"
    />
</svg>
