<svg viewBox="0 0 28 28" fill="currentColor" xmlns="http://www.w3.org/2000/svg">
    <path
        d="M15.5 11V17H24.5V11H15.5ZM12.5 11H3.5V17H12.5V11ZM15.5 24.5H24.5V20H15.5V24.5ZM12.5 24.5V20H3.5V24.5H12.5ZM15.5 3.5V8H24.5V3.5H15.5ZM12.5 3.5H3.5V8H12.5V3.5ZM24.5 0.5C25.2956 0.5 26.0587 0.81607 26.6213 1.37868C27.1839 1.94129 27.5 2.70435 27.5 3.5V24.5C27.5 25.2956 27.1839 26.0587 26.6213 26.6213C26.0587 27.1839 25.2956 27.5 24.5 27.5H3.5C2.70435 27.5 1.94129 27.1839 1.37868 26.6213C0.81607 26.0587 0.5 25.2956 0.5 24.5V3.5C0.5 2.70435 0.81607 1.94129 1.37868 1.37868C1.94129 0.81607 2.70435 0.5 3.5 0.5H24.5Z"
    />
</svg>
