<svg width="24" viewBox="0 0 24 24" fill="currentColor" xmlns="http://www.w3.org/2000/svg">
    <path d="M12 24C18.6274 24 24 18.6274 24 12C24 5.37258 18.6274 0 12 0C5.37258 0 0 5.37258 0 12C0 18.6274 5.37258 24 12 24Z" />
    <path
        d="M16.4644 17.0786C15.0315 16.4561 14.508 15.4879 14.3482 14.6527C15.3802 13.8221 16.2019 12.4942 16.6537 11.0629C17.1184 10.4707 17.3887 9.85312 17.3887 9.33037C17.3887 8.97225 17.2586 8.71312 17.0306 8.52112C16.9549 5.48175 14.8027 3.04125 12.1417 3.00375C12.1207 3.00338 12.1005 3 12.0799 3C12.0716 3 12.0637 3.0015 12.0555 3.0015C9.411 3.01612 7.26187 5.40525 7.13362 8.40487C6.80212 8.60287 6.61087 8.89425 6.61087 9.33075C6.61087 9.94612 6.98287 10.692 7.6095 11.3737C8.05462 12.6214 8.77875 13.7662 9.672 14.538C9.53925 15.3975 9.03487 16.4276 7.53562 17.079C6.726 17.4307 5.24625 17.7469 4.60762 18.0724C6.24337 19.8607 9.34162 20.9857 11.9535 20.9992L11.9906 21.0004C11.9936 20.9996 11.997 21 12 21C14.6302 21 17.7469 19.8712 19.3924 18.072C18.7537 17.7465 17.2736 17.4304 16.4644 17.0786Z"
        fill="white"
    />
</svg>
