<svg xmlns="http://www.w3.org/2000/svg" version="1.1" xmlns:xlink="http://www.w3.org/1999/xlink"
    xmlns:svgjs="http://svgjs.com/svgjs" width="92" height="98">
    <svg width="92" height="98" viewBox="0 0 92 98" fill="none" xmlns="http://www.w3.org/2000/svg">
        <path
            d="M28.6456 6.26441L20.8726 8.67531L14.8998 10.5288L1.15405 14.7966V49.8569C1.17548 50.2513 1.20186 50.6439 1.23318 51.0383C1.55973 55.1317 2.43428 59.1615 3.83298 63.0179C3.87254 63.1327 3.9154 63.2475 3.95827 63.3606C4.01212 63.5137 4.06707 63.6651 4.12312 63.8149C4.22204 64.0778 4.32535 64.3401 4.43306 64.6019C4.52537 64.8331 4.61934 65.0611 4.71331 65.289C4.7842 65.4554 4.85839 65.6318 4.93257 65.8015C5.02489 66.0145 5.11721 66.2258 5.21448 66.4371C5.40571 66.8614 5.60354 67.2806 5.80466 67.6983C5.90852 67.9079 6.00909 68.1159 6.11459 68.3205C6.27945 68.6533 6.4542 68.9861 6.6273 69.3089C6.74435 69.5285 6.8614 69.7465 6.98174 69.9627C7.12022 70.2107 7.2587 70.4619 7.40048 70.7032C7.50599 70.8862 7.61314 71.0709 7.73019 71.2522C7.94615 71.6199 8.17036 71.9826 8.38962 72.3454L8.73747 72.8861C9.20017 73.6038 9.6821 74.3092 10.1833 75.0025C10.7174 75.7457 11.273 76.4767 11.85 77.1954C12.6193 78.1527 13.4238 79.0861 14.2635 79.9957C14.4728 80.2236 14.6855 80.4482 14.8998 80.6729V56.8417H15.5691H28.6423V91.2416L29.0775 91.4828C29.5963 91.769 30.1216 92.0463 30.6535 92.3147C31.1844 92.5876 31.7207 92.8522 32.2625 93.1084C33.3473 93.622 34.4518 94.1072 35.5762 94.5642C35.9504 94.719 36.3263 94.8671 36.7038 95.0118C36.8934 95.085 37.0846 95.1582 37.2758 95.2281C37.561 95.3346 37.8462 95.4394 38.1347 95.5426C38.4232 95.6457 38.7101 95.7472 39.0002 95.8454C39.3877 95.9785 39.7751 96.1083 40.1691 96.2314C40.5631 96.3545 40.9505 96.4793 41.3429 96.5958L41.938 96.7722C42.0831 96.8154 42.2314 96.8587 42.3798 96.8986V2L28.6456 6.26441ZM28.6456 44.8654H14.8998V27.0724H14.9229V26.9359L28.6423 22.6782L28.6456 44.8654Z"
            fill="#91679A"></path>
        <path
            d="M77.1002 10.5172L71.1521 8.67531L63.3544 6.25776L49.6086 2V84.8791H49.6218H49.6136V96.8786L50.0472 96.7539C51.5243 96.3279 52.9745 95.8526 54.3977 95.328C54.9681 95.1183 55.5319 94.9003 56.0925 94.6791C57.0365 94.2997 57.9707 93.9004 58.895 93.4811C59.5066 93.2016 60.1117 92.9121 60.7085 92.6176C61.1569 92.3946 61.6036 92.165 62.0454 91.9337C62.4873 91.7024 62.9258 91.4612 63.3643 91.2199C65.6515 89.9458 67.8542 88.523 69.9586 86.9605C70.4432 86.5995 70.9197 86.2317 71.3928 85.859C73.4147 84.2551 75.3259 82.514 77.1134 80.6479C78.8149 78.8709 80.3915 76.9762 81.8316 74.9776C84.4928 71.3031 86.6314 67.2708 88.1851 62.9979C88.9139 60.9827 89.5017 58.9184 89.9442 56.8201C90.3476 54.9059 90.6279 52.9674 90.7833 51.0166C90.813 50.6423 90.8393 50.2679 90.8591 49.8902V44.8355H70.4416V56.8151H76.416C75.9748 58.9333 75.3282 61.0025 74.4855 62.9929C72.5439 67.5091 69.7197 71.5836 66.1817 74.9726V74.9726C65.6684 75.4684 65.1414 75.952 64.6007 76.4234C64.2924 76.6913 63.9776 76.9559 63.6627 77.2154C63.5588 77.3003 63.4583 77.3818 63.3561 77.465V22.6682L77.0589 26.9126V27.0491H77.1002V39.0287H90.8459V14.7749L77.1002 10.5172Z"
            fill="#91679A"></path>
    </svg>
    <style>
        @media (prefers-color-scheme: light) {
            :root {
                filter: contrast(1) brightness(1);
            }
        }

        @media (prefers-color-scheme: dark) {
            :root {
                filter: contrast(1) brightness(1.3);
            }
        }
    </style>
</svg>